<?xml version="1.0" standalone="no"?>
<!DOCTYPE svg PUBLIC "-//W3C//DTD SVG 20010904//EN"
 "http://www.w3.org/TR/2001/REC-SVG-20010904/DTD/svg10.dtd">
<svg version="1.0" xmlns="http://www.w3.org/2000/svg"
 width="706.000000pt" height="458.000000pt" viewBox="0 0 706.000000 458.000000"
 preserveAspectRatio="xMidYMid meet">

<g transform="translate(0.000000,458.000000) scale(0.100000,-0.100000)"
fill="#000000" stroke="none">
<path d="M1930 1190 l0 -400 80 0 80 0 0 110 0 110 28 0 c15 0 32 -4 39 -8 12
-8 36 -59 67 -144 9 -25 24 -52 32 -59 25 -21 97 -15 133 10 l31 23 -18 26
c-11 15 -27 52 -37 82 -21 64 -52 130 -63 130 -4 0 -15 7 -26 15 -17 13 -17
15 7 47 39 53 110 189 102 196 -4 4 -35 7 -71 7 -76 0 -88 -10 -143 -111 -26
-48 -44 -70 -59 -72 -22 -3 -22 -3 -22 193 0 195 0 196 -25 220 -20 21 -34 25
-80 25 l-55 0 0 -400z"/>
<path d="M3100 1190 l0 -400 80 0 80 0 0 179 0 180 26 20 c30 23 78 28 91 9 4
-7 10 -88 13 -180 5 -158 6 -169 28 -190 43 -43 173 -21 156 27 -4 11 -10 103
-13 205 -5 150 -10 192 -25 222 -38 78 -129 100 -222 53 -27 -14 -50 -25 -51
-25 -2 0 -3 58 -3 129 0 128 0 130 -26 150 -20 15 -41 21 -80 21 l-54 0 0
-400z"/>
<path d="M1052 1560 c-44 -10 -44 -11 -45 -71 -1 -62 16 -79 79 -79 63 0 91
14 99 49 9 42 -3 89 -23 95 -41 11 -79 14 -110 6z"/>
<path d="M2695 1543 c-134 -18 -225 -110 -225 -228 0 -46 40 -116 86 -151 23
-17 82 -48 130 -68 100 -42 134 -68 134 -103 0 -85 -108 -101 -251 -37 l-61
28 -19 -25 c-10 -13 -24 -41 -31 -62 -14 -45 -5 -54 87 -89 50 -19 79 -23 175
-23 109 0 118 2 169 30 69 38 103 88 109 160 7 90 -4 122 -61 179 -40 40 -73
60 -147 90 -104 43 -140 69 -140 100 1 65 89 85 198 45 31 -12 65 -22 76 -23
19 -1 48 45 60 95 5 25 2 28 -52 48 -47 17 -184 44 -202 39 -3 0 -18 -3 -35
-5z"/>
<path d="M460 1206 c0 -358 3 -381 49 -406 11 -6 88 -10 176 -10 205 0 235 15
235 117 l0 36 -145 -5 -145 -6 0 273 c0 273 0 274 -23 301 -20 23 -34 28 -85
32 l-62 4 0 -336z"/>
<path d="M4775 1476 c-14 -10 -20 -30 -23 -80 l-4 -66 -45 0 -44 0 3 -57 3
-58 43 2 42 2 0 -166 c0 -235 17 -263 162 -263 120 0 134 10 120 80 -7 32 -11
35 -51 41 -67 9 -72 22 -69 174 l3 130 62 -3 c59 -4 62 -3 68 21 4 13 5 39 3
58 l-3 34 -67 3 -68 3 0 79 0 80 -58 0 c-34 0 -66 -6 -77 -14z"/>
<path d="M3853 1339 c-121 -23 -182 -103 -191 -250 -11 -196 77 -309 241 -309
106 0 175 39 218 122 39 75 41 223 5 308 -40 98 -155 152 -273 129z m103 -140
c26 -29 33 -197 11 -251 -29 -68 -106 -62 -128 10 -17 57 -8 201 14 235 22 34
74 37 103 6z"/>
<path d="M5883 1339 c-125 -24 -183 -114 -183 -285 0 -137 43 -221 132 -258
72 -30 227 -15 293 28 21 14 23 20 14 48 -15 55 -30 63 -84 48 -26 -7 -67 -14
-92 -14 -37 -1 -49 4 -69 27 -13 15 -24 39 -24 53 l0 24 139 0 c159 0 151 -6
151 105 0 61 -24 131 -58 168 -42 47 -138 72 -219 56z m80 -118 c27 -10 53
-62 43 -86 -5 -13 -19 -15 -73 -13 -61 3 -68 5 -65 23 7 49 13 62 34 73 29 14
32 14 61 3z"/>
<path d="M1010 1333 c-41 -5 -50 -16 -50 -63 0 -42 8 -56 35 -61 38 -8 45 -44
45 -236 l0 -183 80 0 80 0 0 229 c0 126 -4 241 -10 255 -18 48 -89 71 -180 59z"/>
<path d="M1337 1333 c-4 -3 -7 -127 -7 -275 l0 -268 85 0 85 0 0 179 0 180 26
20 c34 27 80 27 94 2 5 -11 10 -84 10 -164 0 -158 9 -199 46 -216 34 -15 56
-14 105 5 34 14 40 20 33 38 -4 12 -10 104 -13 206 -7 197 -12 220 -64 268
-46 43 -135 41 -203 -4 -37 -26 -38 -26 -53 -6 -9 11 -26 25 -38 31 -24 12
-96 15 -106 4z"/>
<path d="M4252 1313 c-29 -42 -31 -56 -11 -82 17 -21 19 -45 19 -232 l0 -209
85 0 85 0 0 170 0 171 27 25 c23 21 36 25 75 22 l48 -3 14 45 c29 90 29 107 4
114 -64 17 -119 -2 -161 -55 l-25 -32 -32 36 c-17 20 -41 39 -53 42 -12 4 -29
9 -39 11 -10 3 -24 -6 -36 -23z"/>
<path d="M5137 1333 c-4 -3 -7 -127 -7 -275 l0 -268 85 0 85 0 0 179 0 180 26
20 c34 27 80 27 94 2 5 -11 10 -84 10 -164 0 -158 9 -199 46 -216 34 -15 56
-14 105 5 34 14 40 20 33 38 -4 12 -10 104 -13 206 -7 197 -12 220 -64 268
-46 43 -135 41 -203 -4 -37 -26 -38 -26 -53 -6 -9 11 -26 25 -38 31 -24 12
-96 15 -106 4z"/>
<path d="M6260 1308 c-24 -40 -25 -51 -2 -85 14 -23 18 -57 20 -230 l4 -203
79 0 79 0 0 169 0 169 32 27 c26 22 40 26 75 23 41 -3 43 -2 58 34 8 21 17 55
21 76 5 35 4 40 -17 45 -65 18 -120 -1 -162 -54 l-25 -32 -17 27 c-19 29 -52
49 -98 60 -23 5 -30 2 -47 -26z"/>
</g>
</svg>
